<svg xmlns="http://www.w3.org/2000/svg" version="1.1" xmlns:xlink="http://www.w3.org/1999/xlink" width="512" height="512" x="0" y="0" viewBox="0 0 512 512" style="enable-background:new 0 0 512 512" xml:space="preserve" class=""><g><path d="M70.13 349.62V27.7c0-11.15 9.05-20.2 20.2-20.2h331.34c11.15 0 20.2 9.05 20.2 20.2v55.23M441.87 117.93V484.3c0 11.15-9.05 20.2-20.2 20.2H90.33c-11.15 0-20.2-9.05-20.2-20.2v-99.68M70.13 407.524h371.74" style="stroke-width:15;stroke-linecap:round;stroke-linejoin:round;stroke-miterlimit:10;" fill="none" stroke="#000000" stroke-width="15" stroke-linecap="round" stroke-linejoin="round" stroke-miterlimit="10" data-original="#000000" class=""></path><path d="M185.289 152.963v-44.447a8.081 8.081 0 0 1 8.081-8.081h125.26a8.081 8.081 0 0 1 8.081 8.081v44.447a8.081 8.081 0 0 1-8.081 8.081H193.37a8.08 8.08 0 0 1-8.081-8.081z" style="stroke-width:15;stroke-linecap:round;stroke-linejoin:round;stroke-miterlimit:10;" fill="none" stroke="#000000" stroke-width="15" stroke-linecap="round" stroke-linejoin="round" stroke-miterlimit="10" data-original="#000000" class=""></path><path d="M304.13 231.76h38.74c7.81 0 14.15-6.34 14.15-14.15V84.27c0-7.81-6.34-14.14-14.15-14.14H169.13c-7.81 0-14.15 6.33-14.15 14.14v133.34c0 7.81 6.34 14.15 14.15 14.15h100M336.813 264.081H175.187M200.441 201.451h0M237.48 201.451h0M274.52 201.451h0M311.559 201.451h0" style="stroke-width:15;stroke-linecap:round;stroke-linejoin:round;stroke-miterlimit:10;" fill="none" stroke="#000000" stroke-width="15" stroke-linecap="round" stroke-linejoin="round" stroke-miterlimit="10" data-original="#000000" class=""></path></g></svg>